<?xml version="1.0" encoding="UTF-8" standalone="no"?>
<svg
   xmlns:dc="http://purl.org/dc/elements/1.1/"
   xmlns:cc="http://creativecommons.org/ns#"
   xmlns:rdf="http://www.w3.org/1999/02/22-rdf-syntax-ns#"
   xmlns:svg="http://www.w3.org/2000/svg"
   xmlns="http://www.w3.org/2000/svg"
   xmlns:sodipodi="http://sodipodi.sourceforge.net/DTD/sodipodi-0.dtd"
   xmlns:inkscape="http://www.inkscape.org/namespaces/inkscape"
   width="791.17407"
   height="176.53947"
   viewBox="0 0 791.17409 176.53948"
   id="svg2"
   version="1.1"
   inkscape:version="0.91 r13725"
   sodipodi:docname="SVM-Logo.svg">
  <sodipodi:namedview
     pagecolor="#ffffff"
     bordercolor="#666666"
     borderopacity="1"
     objecttolerance="10"
     gridtolerance="10"
     guidetolerance="10"
     inkscape:pageopacity="0"
     inkscape:pageshadow="2"
     inkscape:window-width="1920"
     inkscape:window-height="1026"
     id="namedview11"
     showgrid="false"
     units="px"
     inkscape:zoom="1.3"
     inkscape:cx="404.28126"
     inkscape:cy="88.269737"
     inkscape:window-x="0"
     inkscape:window-y="225"
     inkscape:window-maximized="1"
     inkscape:current-layer="svg2" />
  <defs
     id="defs4" />
  <metadata
     id="metadata7">
    <rdf:RDF>
      <cc:Work
         rdf:about="">
        <dc:format>image/svg+xml</dc:format>
        <dc:type
           rdf:resource="http://purl.org/dc/dcmitype/StillImage" />
        <dc:title></dc:title>
      </cc:Work>
    </rdf:RDF>
  </metadata>
  <g
     id="g4143">
    <path
       style="fill:#d8d8d8;fill-opacity:1"
       d="m 13.855611,14.56213 c -15.427371,3.1822 13.599868,3.48147 24.652343,5.64648 11.052475,2.16501 26.42267,5.82064 40.244141,10.47852 57.788115,19.27736 110.353125,51.27376 159.724595,86.4375 34.26068,23.15573 74.16815,38.46804 115.54297,41.54492 -50.62743,1.1149 -97.91812,-21.65275 -139.16601,-49.05273 C 169.69264,82.08471 135.10795,63.66234 71.400532,43.85314 60.322565,40.40858 49.994709,37.42385 37.808736,34.75158 25.622762,32.07931 3.39828,29.281 9.2755316,34.93322 21.089254,37.0525 33.819075,38.24916 45.857564,41.06994 c 22.792779,5.34065 46.89452,13.54766 67.214846,20.35938 47.19866,17.99717 90.14672,44.84002 133.27538,70.69336 33.82667,19.05434 72.23986,30.28805 111.23437,29.76757 3.54756,1.68623 -19.55605,1.86148 -26.36328,0.97657 C 285.51506,160.72811 244.34199,138.91644 205.71107,116.30627 161.07588,92.29152 113.44406,73.72296 64.795064,59.76135 49.064658,55.24694 33.656662,52.04621 16.468892,51.09924 9.5099616,50.71583 -2.29437,53.68341 12.672017,53.66955 c 14.903213,0.8368 28.175043,5.05389 43.105469,7.32227 17.435687,2.79578 35.803148,9.52187 53.164064,15.18359 46.01735,16.16547 89.56006,38.66964 131.62499,63.16211 33.17042,17.51068 70.47143,26.95261 107.98828,27.13867 1.76222,2.09382 -21.05139,2.26774 -28.7207,1.40625 C 263.23374,165.41023 216.26784,130.61558 165.23451,110.48986 149.72464,105.02662 133.73508,98.03137 117.72084,92.53479 97.315821,85.77509 75.524445,79.24669 56.543111,75.17346 50.289426,73.65247 43.186869,73.09012 37.797017,72.1344 28.114974,70.58914 18.309292,69.70829 8.5059996,69.53283 -7.91303,71.97042 22.193028,72.56938 26.998189,73.75354 c 2.115547,0.86495 6.595153,1.48455 10.416015,1.67578 9.052063,1.43434 17.524322,2.73353 22.308594,3.87695 12.907047,3.65613 27.331431,7.42756 40.904292,11.46289 10.45523,3.10843 21.51703,5.85949 31.21484,9.81836 40.87751,14.3058 79.09185,34.78614 118.21094,53.07031 30.00815,13.56136 63.25016,18.11391 95.91601,17.71289 -45.07823,6.31241 -90.46035,-6.52833 -130.89258,-25.89843 -30.23378,-13.14625 -61.12754,-24.83814 -92.55663,-34.75 C 105.70034,105.41794 88.562044,101.0577 71.280798,97.53853 50.680776,93.34353 18.22788,88.84658 8.9200596,88.11682 c -28.3138806,2.43189 6.5016984,4.44697 24.5691284,7.14549 11.797787,1.81759 23.579871,3.76702 35.293848,6.06357 9.081604,1.78047 18.12312,3.77782 27.112044,5.97892 12.10931,2.96518 24.26986,5.83695 36.11287,9.73194 39.94897,13.13862 78.41133,30.45605 117.52148,45.88672 63.25478,23.33128 137.13149,14.74389 192.86133,-23.38477 5.79845,-1.86412 26.23162,-21.5859 10.3125,-11.67383 -48.57138,36.10328 -116.15894,33.30117 -169.6543,10.15039 C 240.94764,120.00467 206.8391,88.37321 166.56459,67.03088 136.12367,49.10145 84.509663,27.97821 69.896626,24.1715 55.283589,20.36479 52.049955,19.52518 41.560689,17.63049 31.071423,15.7358 23.145971,14.86253 13.855611,14.56213 Z M 355.5099,165.81018 c 4.04595,1.97804 -9.26101,0.85231 0,0 z m -5.85157,4.5 c 4.051,1.97711 -9.25918,0.85328 0,0 z"
       id="path4174"
       inkscape:connector-curvature="0" />
    <path
       style="display:inline;fill:#75b529"
       d="m 100.1543,1.8320232 c -7.118761,0.054604 -15.388223,2.4667001 -23.236331,7.609375 -3.639911,2.3851498 -4.169395,2.4336248 -5.996094,0.5527344 -2.348509,-2.41819 -5.884744,-1.7872131 -7.166016,1.2792974 -0.929578,2.224789 -0.828884,2.642699 0.814453,3.40625 1.933421,0.898329 2.030023,2.325428 0.351563,5.173828 -1.820146,3.08885 -4.074219,7.777146 -4.074219,8.472656 0,0.31555 -0.184377,0.76488 -0.410156,1 -0.225778,0.23513 -0.951209,2.211648 -1.611328,4.392578 -1.410876,4.66134 -1.895752,4.991899 -4.232422,2.880859 -4.026393,-3.63761 -8.371094,-2.386893 -8.371094,2.410157 0,2.81582 1.077187,4.159912 2.384766,2.976562 2.861131,-2.58928 5.266575,1.032207 3.320312,4.998047 -1.726974,3.51901 -2.043751,5.222358 -1.257812,6.742187 0.43938,0.849711 0.616448,1.902135 0.455078,2.708985 -0.163791,0.81896 0.01875,1.867022 0.482422,2.763672 0.903312,1.74682 0.283972,2.853245 -1.478516,2.640625 -0.855234,-0.10318 -1.267617,-0.562094 -1.740234,-1.933594 -1.270652,-3.68736 -4.810669,-6.32013 -6.638672,-4.9375 -0.480429,0.36338 -1.311189,0.660156 -1.845703,0.660156 -4.080902,0 -6.672522,4.328943 -4.326172,7.226563 0.830569,1.02571 0.829891,1.025079 2.404297,-0.175781 5.238864,-3.995871 9.744708,2.72923 9.798828,14.625 0.02509,5.513979 -0.372994,5.873778 -3.410156,3.074218 -2.256687,-2.08014 -3.37509,-2.238192 -4.917969,-0.695312 -1.683306,1.6833 -1.030755,4.746094 1.011719,4.746094 3.694518,0 5.706388,8.676751 3.257812,14.050781 -1.594147,3.498779 -4.960518,1.763939 -4.8125,-2.480469 0.128322,-3.67966 -0.794813,-4.724389 -3.515625,-3.974609 -1.25347,0.34542 -1.315414,0.47725 -1.205078,2.53125 0.164043,3.05394 -0.638495,3.822265 -3.990234,3.822265 -10.306948,0 -16.421765,7.695372 -12.232422,15.392572 2.829577,5.19887 12.801652,6.91604 17.681641,3.04493 3.158177,-2.50525 4.402827,-2.95941 5.634765,-2.0586 0.765828,0.55999 0.7964,0.75876 0.261719,1.75781 -0.817952,1.52836 -0.327869,2.11329 1.769531,2.11329 3.705386,0 4.502571,-5.01844 1.001953,-6.30664 -3.398589,-1.25065 -3.513274,-2.03612 -0.751953,-5.16016 1.96974,-2.22848 3.79783,-2.3253 7.605469,-0.4043 5.136773,2.59157 6.703557,5.53924 4.171875,7.85157 -1.652508,1.50934 -1.45486,2.41889 0.761719,3.50585 2.379537,1.16688 4.294922,-0.69968 4.294922,-4.18554 -10e-7,-1.98721 1.021645,-2.83423 2.623046,-2.17578 5.220252,2.14642 10.916518,4.22425 12.226563,4.46093 0.86625,0.15651 2.080469,0.53645 2.699219,0.84375 0.932157,0.46296 6.221448,1.70755 11.25,2.64844 1.772671,0.33169 9.798168,-0.0692 13.406254,-0.66992 4.51966,-0.75251 6.22517,-2.91832 4.08789,-5.19336 -1.0981,-1.16886 -0.85443,-2.41406 0.47265,-2.41406 5.44594,0 12.94745,-10.13873 8.92188,-12.058594 -1.50696,-0.71869 -1.5831,-1.952308 -0.33789,-5.492188 2.8846,-8.2004 -3.64559,-18.495602 -8.47266,-13.357422 -0.53885,0.57358 -2.14934,1.602257 -3.57812,2.285157 -5.406876,2.58424 -5.745407,9.292981 -0.36524,7.238281 5.04587,-1.92703 7.43043,6.268481 3.72656,12.806636 -5.08764,8.98086 -17.893244,12.24154 -33.068356,8.41992 -5.875362,-1.47961 -6.343553,-2.29003 -2.498046,-4.33007 5.190735,-2.75368 3.735107,-10.36133 -1.982422,-10.36133 -1.710405,0 -2.361328,0.745355 -2.361328,2.703125 0,3.543775 -2.896444,5.085995 -9.625,5.124995 -7.498368,0.0435 -11.754855,-2.52061 -9.138672,-5.505854 0.360396,-0.41124 1.465713,-2.672188 2.455078,-5.023438 1.737401,-4.12897 2.328969,-5.91569 4.839844,-14.625 1.861254,-6.45601 2.590119,-7.333109 5.011718,-6.037109 2.3602,1.26314 4.701736,-2.351826 3.103516,-4.791016 -0.598153,-0.9129 -1.084654,-1.095703 -2.910156,-1.095703 -2.381337,0 -2.736328,-0.361358 -2.736328,-2.767578 -10e-7,-0.73853 -0.212701,-1.738879 -0.472657,-2.224609 -0.370665,-0.6926 -0.274359,-1.136761 0.449219,-2.056641 0.519336,-0.66023 0.921875,-1.841855 0.921875,-2.703125 0,-0.84159 0.287398,-1.979174 0.636719,-2.527344 0.349317,-0.54817 0.847209,-2.413984 1.107422,-4.146484 0.473886,-3.15517 1.795577,-5.175781 3.386718,-5.175781 0.319086,0 0.942538,-0.400012 1.384766,-0.888672 1.138109,-1.25759 -0.06139,-3.160156 -1.992188,-3.160156 -3.571051,0 -3.230969,-4.376393 0.953126,-12.226563 3.995981,-7.49723 14.773437,-13.175053 14.773437,-7.783203 0,0.83705 0.225682,0.82674 1.591797,-0.06836 1.588747,-1.040999 1.579818,-3.894073 -0.01563,-4.939453 -2.951915,-1.93417 -0.374127,-4.59819 6.525391,-6.7441402 5.675949,-1.7653901 12.885737,0.8056272 13.738287,4.8984372 0.67857,3.25762 2.249,4.212518 4.50195,2.736328 1.32013,-0.86499 1.51181,-3.191505 0.40235,-4.884765 -0.61773,-0.94276 -0.32618,-2.9394534 0.42968,-2.9394534 1.97501,0 4.32618,2.3877484 4.32618,4.3925784 0,1.62871 1.06613,2.543092 2.16406,1.857422 1.64163,-1.02524 2.61291,0.31763 1.74023,2.40625 -0.36397,0.8711 -0.88544,1.722055 -1.1582,1.890625 -0.27275,0.16858 -0.49609,0.828576 -0.49609,1.466797 -1e-5,1.140049 -0.0417,1.155326 -2.44336,0.873046 -2.73102,-0.32097 -3.35203,0.309634 -2.73829,2.783204 1.62481,6.54844 9.72579,2.18547 11.02344,-5.9375 C 120.68813,8.1967608 112.01889,1.7410167 100.1543,1.8320232 Z m 623.25,26.4531248 c -4.84077,-0.157212 -11.85268,1.607797 -14.47266,4.591797 -4.46261,5.08261 -2.0475,11.085123 6.43945,16.001953 7.71804,4.47133 8.28192,4.918101 9.67579,7.650391 3.29682,6.46226 -4.12252,10.865336 -13.28516,7.884765 -4.16412,-1.35456 -4.81438,-1.23574 -5.36914,0.97461 -0.3915,1.55987 0.004,1.867927 3.63867,2.835937 12.10599,3.22438 21.19617,-1.612513 20.3125,-10.808593 -0.33529,-3.4896 -7.73505,-11.202675 -10.7793,-11.234375 -0.83228,-0.0087 -6.11573,-4.071959 -7.0039,-5.386719 -3.91558,-5.79616 3.50631,-10.377476 12.875,-7.947266 2.66566,0.69146 2.79698,0.599499 2.91992,-2.050781 0.0756,-1.630088 -2.04671,-2.417392 -4.95117,-2.511719 z M 155,28.511711 c -3.70479,-0.02185 -7.92886,0.587205 -9.88672,1.84375 -8.04228,5.16148 -6.10168,13.367248 4.53516,19.173828 8.43999,4.60733 10.99304,8.491992 8.38867,12.763672 -2.18187,3.57868 -10.12954,4.286986 -15.11133,1.347656 -1.74525,-1.02972 -2.05744,-0.876607 -2.81055,1.376953 -0.65442,1.9582 -0.54784,2.085941 2.52149,2.994141 1.42266,0.42095 2.78765,0.82885 3.03516,0.90625 17.43061,5.45049 24.41117,-13.880046 8.05859,-22.316407 -7.73376,-3.989869 -10.08338,-6.895575 -8.52539,-10.546874 1.54204,-3.613921 6.45757,-4.814494 13.18164,-3.220704 3.10949,0.73703 3.06267,0.769001 3.37695,-2.380859 0.12645,-1.26733 -3.05888,-1.919552 -6.76367,-1.941406 z m 325.03125,0.113281 c -1.08774,-0.0925 -2.09571,0.86194 -2.83594,2.929688 -1.09328,3.054079 -3.26652,8.77302 -4.61719,12.15039 -3.5866,8.96854 -9.43164,24.236659 -9.43164,24.636719 10e-4,0.94769 3.99582,0.317099 4.28125,-0.675781 0.16011,-0.55687 0.54938,-1.618829 0.86524,-2.361328 0.31585,-0.7425 1.23554,-3.02304 2.04297,-5.06836 1.80293,-4.56701 0.71116,-4.096306 9.70117,-4.191406 7.47855,-0.07909 7.61081,-0.06263 8.29297,0.958984 0.81936,1.22712 3.41658,7.580172 4.08398,9.988282 0.46197,1.6669 0.49616,1.6875 2.75196,1.6875 2.78641,0 2.7854,-0.0976 -0.0781,-7.201172 -7.25027,-17.98566 -9.41641,-23.452239 -10.875,-27.449219 -1.25398,-3.436397 -2.78312,-5.285363 -4.18164,-5.404297 z m 304.86914,0.05273 c -1.47904,-0.01448 -2.41176,0.735584 -4.9668,3.214844 -18.51426,17.96513 -17.26736,17.531481 -17.43359,6.056641 -0.13531,-9.33871 -0.0948,-9.225448 -3.03516,-8.673828 -2.92919,0.54952 -2.14919,39.127496 0.79493,39.316406 2.1375,0.13716 2.13867,0.136639 2.13867,-7.212891 0,-8.15642 0.0484,-8.325713 3.04492,-10.402344 2.55123,-1.76799 1.92318,-2.249471 10.22852,7.830079 0.99,1.20149 3.31953,4.01404 5.17578,6.25 3.375,4.06487 3.37498,4.064359 5.71093,4.068359 2.83311,0.0042 3.15838,-0.388282 1.7168,-2.076172 -0.6079,-0.71177 -1.37905,-1.614419 -1.71484,-2.005859 -0.33579,-0.39144 -1.7921,-2.113862 -3.23633,-3.826172 -1.44418,-1.71231 -2.75335,-3.214141 -2.9082,-3.337891 -0.15484,-0.12375 -1.81939,-2.14875 -3.69922,-4.5 -1.87983,-2.35125 -3.84633,-4.661322 -4.36914,-5.132812 -1.78169,-1.6068 -1.25615,-2.437408 5.86132,-9.267578 3.73973,-3.58875 7.48467,-7.012965 8.32032,-7.609375 1.89356,-1.3514 1.92599,-2.096045 0.11132,-2.458985 -0.695,-0.139 -1.24722,-0.227595 -1.74023,-0.232422 z m -220.84961,0.08984 c -1.10609,-0.0043 -2.25336,0.02245 -3.4414,0.07813 -7.01113,0.32859 -7.01172,0.328487 -7.01172,20.060547 0,19.73206 -3.9e-4,19.731242 3.03711,19.888672 22.44262,1.16312 29.60779,-3.244546 30.54492,-18.791016 0.86425,-14.337731 -6.53747,-21.172126 -23.12891,-21.236328 z m -308.2539,0.03906 c -1.14166,-0.01573 -2.32384,0.0027 -3.54688,0.05664 -7.31927,0.32285 -7.32025,0.324521 -7.34375,20.050781 -0.0235,19.726251 -0.0235,19.72541 3.24609,19.88086 21.59806,1.02682 28.46988,-2.730771 30.50977,-16.681641 2.19683,-15.024234 -5.74046,-23.070706 -22.86523,-23.30664 z m 149.88281,0.03906 c -0.89748,0.0099 -1.86912,0.0403 -2.92774,0.08594 -6.62109,0.28543 -6.62103,0.284075 -6.64453,20.015625 -0.0235,19.73155 -0.0243,19.732422 2.00781,19.732422 2.03209,0 2.03321,2.34e-4 2.03321,-8.009766 0,-9.20446 -0.0468,-9.089844 3.67187,-9.089844 3.11897,0 2.50023,-0.584624 10.36133,9.785156 6.31731,8.33331 6.51466,8.482894 9.58789,7.314454 1.18066,-0.448871 1.18087,-0.448089 -0.19726,-2.136719 -3.02359,-3.70482 -10.21958,-13.010927 -10.94922,-14.160157 -1.09924,-1.731359 -1.00937,-1.959831 1.17968,-3.019531 6.04882,-2.92819 7.8639,-12.29797 3.30469,-17.05664 -2.55013,-2.661698 -5.14539,-3.530136 -11.42773,-3.460938 z m -82.57422,0.02148 c -0.38032,0.01257 -0.8938,0.06078 -1.5957,0.115234 -1.50165,0.11649 -2.25442,0.357133 -2.06836,0.658203 0.37308,0.60365 2.7305,7.131353 3.53515,9.789063 0.33719,1.113749 1.04425,3.138749 1.57227,4.5 0.52802,1.36125 1.88578,5.005859 3.01758,8.099609 1.13179,3.09375 2.65403,7.244609 3.38086,9.224609 1.24348,3.38738 1.99607,5.537596 2.41015,6.884766 0.72018,2.34305 5.64773,0.278965 6.76563,-2.833984 0.62216,-1.7325 1.49844,-4.162891 1.94726,-5.400391 1.6488,-4.54611 5.97216,-16.741361 7.01953,-19.800781 2.17398,-6.35024 3.25283,-9.268439 3.52735,-9.542969 0.97678,-0.97678 0.16433,-1.521888 -2.07617,-1.392578 -2.301,0.13279 -2.36451,0.173227 -2.65821,1.710937 -0.16545,0.86625 -1.03214,3.601172 -1.92773,6.076172 -0.8956,2.475 -2.11805,5.915938 -2.71485,7.648438 -0.5968,1.7325 -2.20814,6.390709 -3.58203,10.349609 -3.47408,10.01066 -2.76318,10.527352 -8.65429,-6.298828 -0.34661,-0.99 -0.82438,-2.204219 -1.0625,-2.699219 -0.23811,-0.495 -0.8284,-2.116562 -1.31055,-3.601562 -0.48215,-1.485 -1.50776,-4.419688 -2.2793,-6.523438 -0.77154,-2.10375 -1.5767,-4.500239 -1.78906,-5.324219 -0.35915,-1.393567 -0.31606,-1.676371 -1.45703,-1.638671 z m 116.93945,0.01172 c -0.70269,0.0067 -1.43258,0.02825 -2.18945,0.06445 -5.72477,0.27382 -5.72465,0.273358 -5.74805,19.986329 -0.0235,19.71296 -0.0242,19.712296 3.69531,19.878906 15.20321,0.68101 20.23415,-1.437538 21.25196,-8.955078 0.61079,-4.51137 -1.39853,-8.166508 -5.67969,-10.335938 -1.1979,-0.60702 -2.17773,-1.210244 -2.17773,-1.339844 0,-0.57396 2.02398,-2.898437 2.52343,-2.898437 1.09895,0 2.53073,-3.138333 2.76563,-6.064453 0.5778,-7.198219 -3.9011,-10.436578 -14.44141,-10.335938 z m 98.10156,0.103516 c -1.50336,-0.0975 -1.44738,1.899091 -1.64843,15.042969 -0.26231,17.14747 -0.41469,17.739596 -3.40625,13.310547 -0.71779,-1.062711 -1.64842,-2.337032 -2.06836,-2.832032 -2.51136,-2.96017 -3.54846,-4.286798 -4.91992,-6.298828 -1.58171,-2.32044 -4.80183,-6.620777 -8.73047,-11.654297 -1.2375,-1.58555 -2.95993,-3.90573 -3.82617,-5.15625 -1.57501,-2.27365 -1.57422,-2.273822 -4.38672,-2.294922 -2.8125,-0.02108 -2.8125,-0.0207 -2.8125,19.779297 0,19.8 3.9e-4,19.800782 2.02539,19.800782 2.02488,0 2.02425,3.9e-4 2.03125,-15.41211 0.008,-18.61122 0.13737,-19.019238 4.22656,-13.298828 1.92092,2.68718 4.19038,5.700906 10.09766,13.410156 1.42236,1.85625 3.18507,4.209336 3.91601,5.228516 0.73098,1.01918 2.81269,3.80355 4.62695,6.1875 3.39273,4.45804 4.21105,4.963637 6.56446,4.060547 1.39914,-0.53691 1.03069,-39.228741 -0.37696,-39.582031 -0.53535,-0.134365 -0.96557,-0.268517 -1.3125,-0.291016 z m 111.99805,0.05859 c -0.27059,0.0096 -0.58195,0.03906 -0.94531,0.03906 -2.28393,0 -2.45222,0.07515 -2.72852,1.236328 -0.16195,0.68063 -1.48203,3.723479 -2.93359,6.761719 -1.45152,3.03823 -2.63867,5.744352 -2.63867,6.013672 0,0.26931 -0.39221,1.226993 -0.8711,2.126953 -1.27008,2.38676 -5.42773,11.343823 -5.42773,11.689453 6.8e-4,0.16229 -0.45612,1.206563 -1.01367,2.320313 -1.57042,3.13697 -2.32848,3.453841 -2.96875,1.238281 -0.41422,-1.43326 -2.25382,-5.867841 -4.39258,-10.587891 -0.59211,-1.30671 -1.07617,-2.567241 -1.07617,-2.800781 0,-0.23355 -0.39344,-1.291119 -0.87305,-2.349609 -0.47956,-1.05849 -1.71205,-4.049688 -2.73828,-6.648438 -3.44209,-8.71675 -3.46744,-8.755736 -6.11523,-8.910156 -2.29297,-0.13374 -2.29247,-0.13374 -2.5586,3.375 -0.49118,6.47686 -1.6442,21.009144 -2.09961,26.458984 -0.24817,2.97 -0.45398,6.36149 -0.45898,7.53711 -0.007,2.1315 -0.003,2.138672 1.51953,2.138672 2.05146,0 1.96916,0.377488 3.17773,-14.394532 1.39185,-17.0124 1.93202,-17.970559 5.21485,-9.230468 0.1859,0.495 1.52419,3.923893 2.97265,7.621093 1.44849,3.6972 3.0615,7.860773 3.58594,9.251953 2.49655,6.62326 2.63822,6.820176 4.75781,6.666016 1.50715,-0.10961 2.03397,-0.376752 2.49414,-1.263672 1.3878,-2.67501 11.97931,-26.154342 12.45118,-27.601562 1.16049,-3.55915 2.20143,2.16141 2.93359,16.125 0.70929,13.52703 0.50522,12.664365 3.02734,12.759765 2.05132,0.07759 2.0511,0.07608 1.7793,-2.966797 -0.14949,-1.67359 -0.67843,-9.521406 -1.17383,-17.441406 -1.14802,-18.353055 -1.00626,-19.231382 -2.90039,-19.164062 z m -465.59961,0.03906 c -15.80249,0 -15.80259,-7.81e-4 -15.53125,1.011719 0.14924,0.55688 0.27335,1.367661 0.27735,1.800781 0.006,0.7106 0.59605,0.78711 6.04882,0.78711 8.28475,0 7.45704,-2.069131 7.45704,18.630859 -10e-6,17.21786 3.9e-4,17.21875 2.02539,17.21875 2.025,0 2.02539,-8.9e-4 2.02539,-17.21875 0,-20.69999 -0.82772,-18.630859 7.45703,-18.630859 6.04286,0 6.04297,-7.82e-4 6.04297,-1.800782 0,-1.8 -2.6e-4,-1.798828 -15.80274,-1.798828 z m 114.75,0 c -15.80248,0 -15.80259,-7.81e-4 -15.53125,1.011719 0.14924,0.55688 0.27335,1.367661 0.27735,1.800781 0.006,0.7121 0.60843,0.78711 6.29101,0.78711 7.99251,0 7.21485,-2.03242 7.21485,18.86914 -10e-6,17.12958 3.9e-4,17.13086 2.02539,17.13086 2.025,0 2.02539,-9.87e-4 2.02539,-17.535157 0,-20.6493 -0.9004,-18.464843 7.62109,-18.464843 5.87958,0 5.87891,-7.82e-4 5.87891,-1.800782 0,-1.8 -2.5e-4,-1.798828 -15.80274,-1.798828 z m 73.62696,0 c -11.025,0 -11.02344,-0.0012 -11.02344,19.798828 0,19.8 -7.8e-4,19.800782 11.69922,19.800782 6.435,0 11.69922,-0.177962 11.69922,-0.394532 -10e-6,-3.22615 0.0589,-3.205078 -9.22461,-3.205078 -10.59177,0 -9.73557,0.70863 -9.57422,-7.9375 0.12484,-6.68905 0.12423,-6.687427 7.88672,-6.810547 7.7625,-0.12313 7.76367,-0.123594 7.76367,-1.902343 0,-1.778741 -10e-4,-1.779214 -7.76367,-1.902344 -7.7625,-0.12313 -7.76277,-0.123692 -7.88868,-6.419922 -0.15983,-7.99284 -0.87581,-7.427734 9.4375,-7.427734 8.01399,0 8.01368,-7.82e-4 8.01368,-1.800782 0,-1.8 -4e-4,-1.798828 -11.02539,-1.798828 z m 294.49414,0 c -2.28154,0 -2.28076,-3.91e-4 -2.13672,15.41211 0.17933,19.18383 0.92293,21.272044 8.46875,23.771484 8.67019,2.87186 18.18841,-0.301155 21.69922,-7.234375 2.30823,-4.55835 1.45187,-31.724609 -1,-31.724609 -2.025,0 -2.025,-0.0013 -2.25,14.1875 -0.30091,18.97553 -2.76722,23.276023 -12.51368,21.814453 -9.04071,-1.35574 -9.98632,-3.469325 -9.98632,-22.333985 0,-13.89342 3.4e-4,-13.892578 -2.28125,-13.892578 z m 75.40625,0 c -2.025,0 -2.02539,-0.0012 -2.02539,19.798828 0,19.8 3.9e-4,19.800782 2.02539,19.800782 2.025,0 2.02539,-7.82e-4 2.02539,-19.800782 0,-19.8 -3.9e-4,-19.798828 -2.02539,-19.798828 z m -524.53516,0.04687 c -1.61931,0.01506 -2.07996,0.851529 -3.5625,5.027344 -0.8102,2.28207 -1.61807,4.352109 -1.79688,4.599609 -0.1788,0.2475 -0.85757,1.937086 -1.50781,3.753906 -0.65024,1.816821 -1.56134,4.247211 -2.02539,5.400391 -0.46406,1.15318 -1.48359,3.818125 -2.26562,5.921875 -0.78204,2.10375 -1.6153,4.229609 -1.85157,4.72461 -0.86377,1.80966 -3.58007,9.008091 -3.58007,9.488281 0,0.27781 0.83724,0.504178 1.91211,0.517578 1.9125,0.02382 1.91348,0.02403 4.12109,-5.666016 1.21417,-3.12953 2.40333,-5.942573 2.64258,-6.251953 0.65939,-0.85266 15.77056,-0.797193 16.48242,0.06055 0.4072,0.49063 4.54297,11.265508 4.54297,11.835937 0,0.07662 1.03638,0.140626 2.30273,0.140626 2.1561,0 2.2865,-0.06551 2.07031,-1.013672 -0.37163,-1.62986 -4.72664,-12.560117 -5.71679,-14.347657 -0.4985,-0.89995 -0.90625,-1.977901 -0.90625,-2.394531 0,-0.41663 -0.59441,-2.211111 -1.32032,-3.988281 -0.7259,-1.77717 -2.45323,-6.167109 -3.83789,-9.755859 -3.16611,-8.2058 -2.9457,-7.849599 -4.93164,-8.017579 -0.28502,-0.02411 -0.54015,-0.03731 -0.77148,-0.03516 z m 222.3457,2.652344 c 10.30189,0 13.80751,12.152731 4.26953,14.800781 -7.37541,2.04764 -8.7539,0.870551 -8.7539,-7.480469 0,-7.44022 -0.0737,-7.320312 4.48437,-7.320312 z m -36.57031,0.03516 c 1.42293,-0.0584 3.33049,0.34376 5.86914,1.097656 6.69001,1.98673 7.16521,11.394524 0.71875,14.246094 -8.02541,3.55003 -10.50195,1.860954 -10.50195,-7.160156 0,-5.703954 0.78362,-8.055124 3.91406,-8.183594 z m -149.62891,0.220703 c 3.97458,-2.5e-4 9.37856,0.996299 12.28907,2.539063 10.598,5.61762 9.8929,24.1376 -1.12305,29.5 -2.75569,1.34143 -13.69223,2.045447 -15.41406,0.992187 -1.28263,-0.78458 -1.20436,-31.682634 0.082,-32.371094 0.84739,-0.453509 2.35939,-0.660042 4.16601,-0.660156 z m 308.61719,0.05273 c 3.81793,0.09079 8.80709,0.817256 10.91602,1.855468 11.88767,5.85225 11.89258,23.609304 0.008,30.121094 -2.41394,1.32262 -13.82654,2.06147 -15.53906,1.005859 -1.11231,-0.68562 -1.22374,-31.470321 -0.11719,-32.388671 0.57208,-0.47478 2.44167,-0.648222 4.73242,-0.59375 z m -344.25586,3.435547 c 0.45062,-0.05967 0.80038,0.896801 1.33399,2.662109 0.31902,1.05542 1.16324,3.193963 1.875,4.751953 0.71176,1.55799 1.29587,3.177599 1.29687,3.599609 0.002,0.42201 0.3041,1.347731 0.67383,2.056641 0.874,1.67585 0.85709,3.269401 -0.0391,3.613281 -0.39149,0.15023 -3.0295,0.271485 -5.86328,0.271485 -6.90685,0 -6.78389,0.656992 -2.12305,-11.242188 1.52,-3.880569 2.26634,-5.636168 2.8457,-5.71289 z m 261.33789,0.416015 c 0.50457,0.101717 1.01218,1.020295 1.6211,2.730469 0.36909,1.03654 1.59878,4.293221 2.73242,7.238281 1.57245,4.08479 1.94148,5.499201 1.55664,5.962891 -0.49896,0.60124 -10.16736,0.861677 -11.5332,0.310547 -0.8806,-0.35533 -0.67936,-1.547252 0.94726,-5.607422 0.83047,-2.07298 1.96988,-5.187422 2.53125,-6.919922 0.85098,-2.626104 1.49581,-3.845622 2.14453,-3.714844 z m -41.24023,14.253906 c 3.16661,-0.142003 8.60798,0.931335 10.82812,2.4375 4.24993,2.88319 3.8002,9.369108 -0.82422,11.898438 -2.47811,1.3554 -7.55965,1.684312 -11.73632,0.757812 -1.1903,-0.26403 -1.6171,-13.373118 -0.47266,-14.517578 0.34676,-0.346762 1.14954,-0.528837 2.20508,-0.576172 z M 31.451172,102.05858 c 0.250232,4.8e-4 0.553719,0.0377 0.941406,0.0957 0.924043,0.13819 2.692188,0.38332 3.929688,0.54492 4.151376,0.54209 4.455236,2.02381 1.089843,5.32422 -2.192994,2.15066 -2.307659,2.20271 -3.732421,1.6875 -2.026255,-0.7327 -2.082032,-0.71065 -2.082032,0.84765 0,1.9741 -0.682727,2.9918 -2.697265,4.01953 -5.089479,2.59647 -10.302302,-2.90495 -7.660157,-8.08398 1.072962,-2.10318 2.198876,-2.55107 4.03125,-1.60352 1.861357,0.96254 3.394837,0.48163 4.515625,-1.41796 0.640909,-1.08627 0.913367,-1.41548 1.664063,-1.41407 z"
       id="path4285"
       inkscape:connector-curvature="0" />
    <path
       style="display:inline;fill:#bbec51;fill-opacity:1"
       d="m 101.61308,2.010241 c -7.601509,-0.03593 -16.882779,2.56127 -26.369149,8.19726 -2.31103,1.37302 -2.31102,1.37345 -4.20507,-0.20898 -3.53258,-2.95139 -7.68505,-1.39629 -8.42383,3.15625 -0.23378,1.44061 -0.14125,1.6056 1.1582,2.05859 2.28276,0.79578 2.26211,2.10225 -0.0918,6.13282 -2.24898,3.8509 -3.39806,6.52294 -5.27539,12.26953 -1.38396,4.23639 -2.43326,5.07578 -3.77929,3.02148 -2.02051,-3.08368 -7.27806,-2.815 -8.63867,0.44141 -1.32671,3.17523 0.52095,7.58899 2.44726,5.8457 3.3384,-3.0212 4.55252,0.67607 2.11133,6.43164 -1.09744,2.58746 -1.17307,3.06934 -0.67188,4.27539 0.31065,0.74753 0.62407,2.27102 0.69727,3.38477 0.07321,1.11375 0.27523,2.68194 0.44726,3.48632 0.57002,2.66516 -1.62091,2.0487 -2.60937,-0.73437 -1.43751,-4.04741 -4.39512,-6.02662 -7.17773,-4.80273 -0.81277,0.35748 -2.22548,0.77008 -3.13868,0.91601 -3.55695,0.5684 -5.22153,5.02063 -2.89062,7.73047 1.07294,1.24738 1.07219,1.24767 2.83594,0.02539 4.86375,-3.37058 8.44819,1.62244 9.00976,12.54883 0.29842,5.806318 5.8e-4,6.348688 -2.36523,4.271478 -2.72731,-2.394608 -6.09699,-2.044558 -6.78711,0.70508 -0.58698,2.338764 0.35441,3.657684 3.20703,4.492194 2.64434,0.77358 3.95576,7.65333 2.33789,12.26758 -1.36959,3.906157 -4.50576,2.902787 -4.06641,-1.30078 0.23106,-2.21067 0.14033,-2.87767 -0.48828,-3.57227 -2.45953,-2.71775 -6.75288,-0.59926 -5.50195,2.71484 0.7513,1.99042 -0.06223,2.48205 -4.58984,2.77539 -8.2422,0.53399 -12.66602,4.407997 -12.66602,11.091797 0,9.39933 13.49471,13.88063 21.15039,7.02344 2.20821,-1.97789 4.22932,-1.75568 3.26563,0.35937 -0.66914,1.46862 0.45732,2.55078 2.65429,2.55078 3.95112,0 5.00467,-5.25878 1.40039,-6.99023 -3.0341,-1.45754 -3.07174,-1.60999 -1.03125,-4.19141 2.09795,-2.65411 2.59595,-2.75599 6.04102,-1.23242 5.41759,2.39592 7.63537,5.66484 5.1582,7.60352 -1.74337,1.36439 -1.53774,3.07521 0.4961,4.12695 2.72461,1.40895 4.77868,0.0663 5.24218,-3.42773 0.37645,-2.8378 0.9039,-3.04889 4.39258,-1.75782 10.0306,3.71206 16.09312,5.45793 24.13086,6.94922 1.80083,0.33412 9.86456,-0.0687 13.283199,-0.66406 4.59171,-0.79961 7.57894,-3.9638 5.16602,-5.4707 -1.43635,-0.89702 -1.08046,-1.46297 1.89648,-3.02344 5.14924,-2.69916 8.44618,-6.34448 8.45118,-9.3418 0.002,-1.42021 -0.25665,-1.8119 -1.99219,-3.011717 -0.85683,-0.59234 -0.85403,-0.65598 0.16015,-4.07226 1.30663,-4.40141 1.20624,-9.41491 -0.22656,-11.33399 -2.80329,-3.754702 -7.29833,-5.370272 -9.0039,-3.236324 -0.47288,0.59165 -2.04031,1.64956 -3.48438,2.35156 -5.729949,2.785504 -5.829499,10.322004 -0.10742,8.136724 4.79938,-1.83291 6.81928,5.89158 3.18359,12.175777 -4.84812,8.37986 -17.169229,11.79238 -30.826169,8.53515 -6.52333,-1.55583 -7.02599,-2.02346 -4.02344,-3.73828 2.61702,-1.49463 3.66996,-3.37638 3.43164,-6.13281 -0.48073,-5.560127 -8.4082,-7.495477 -8.4082,-2.052727 0,3.804217 -7.68892,6.178307 -14.0332,4.333977 -4.81405,-1.39948 -4.92905,-1.71066 -2.51758,-6.906247 2.33268,-5.02581 3.07519,-7.15079 5.54297,-15.878914 1.94838,-6.891078 2.6908,-8.098448 4.48437,-7.281238 1.68559,0.76801 2.21092,0.67189 3.53711,-0.6543 2.52042,-2.52043 1.20767,-5.62532 -2.53711,-6.00196 -2.64245,-0.26577 -3.99812,-4.08745 -2.3457,-6.60937 0.36833,-0.56214 0.66992,-1.74328 0.66992,-2.62695 0,-0.88366 0.31025,-2.08143 0.68945,-2.66016 0.37922,-0.57874 0.80786,-2.14002 0.95313,-3.4707 0.33033,-3.02606 1.04822,-4.19283 3.28125,-5.33203 3.27303,-1.66977 1.9069,-6.45115 -1.47266,-5.1543 -2.37013,0.90951 -1.38291,-5.17319 1.79493,-11.05859 3.90655,-7.23497 11.61383,-11.84376 13.91992,-8.32422 0.92235,1.40773 1.1354,1.40076 2.89062,-0.07618 1.70417,-1.43396 1.60896,-3.17744 -0.28125,-5.15039 -3.54023,-3.6952 7.82916,-8.21166 14.75586,-5.86132 1.8722,0.63527 4.867189,3.68321 4.867189,4.95312 0,1.28573 1.73787,3.20899 2.89844,3.20899 2.1538,0 3.51404,-1.6922 3.21679,-4.00196 -0.55724,-4.33 -0.55806,-4.33355 0.41016,-4.17578 1.44336,0.23521 2.46172,1.54381 3.05859,3.92969 0.55214,2.20705 0.56901,2.22278 2.23633,2.0918 2.08813,-0.16405 2.36402,1.35686 0.55469,3.05664 -0.61875,0.58129 -1.125,1.45079 -1.125,1.93359 0,0.75628 -0.20092,0.83356 -1.46094,0.55664 -2.64617,-0.58156 -2.78277,-0.53116 -3.20898,1.16406 -2.05754,8.18368 9.21324,6.67256 11.46484,-1.53711 3.50841,-12.79218 -4.49098,-20.16277 -17.16015,-20.22265 z m 219.80273,26.45898 c -0.72472,-0.02158 -1.51913,0.32271 -2.48242,0.9043 -0.25928,0.15654 0.46451,2.33706 4.47851,13.4668 0.98188,2.7225 3.45433,9.60632 5.49414,15.29882 2.03979,5.6925 3.9062,10.6047 4.14649,10.91407 0.26673,0.34342 1.53271,0.5625 3.25,0.5625 3.09807,0 2.03093,2.30617 12.16211,-26.32618 1.0509,-2.97 2.54167,-7.15496 3.3125,-9.30078 1.80619,-5.02796 1.83925,-4.87304 -1.01758,-4.87304 -2.55677,0 -3.15186,0.37737 -3.54688,2.25 -0.13053,0.61875 -1.89882,5.88297 -3.92968,11.69921 -2.03085,5.81625 -4.29886,12.3461 -5.03907,14.51172 -0.77233,2.25965 -1.5955,3.9375 -1.93359,3.9375 -0.63349,0 -0.64057,-0.01328 -7.59961,-19.57422 -3.57774,-10.05654 -5.12076,-13.40595 -7.29492,-13.4707 z m -166.53516,0.11914 c -17.25399,-0.41537 -21.62212,13.17324 -5.32617,21.9336 7.67142,4.124 10.29813,8.04826 7.9961,11.94531 -2.09209,3.54161 -9.17975,4.07099 -14.9004,1.11133 -1.95261,-1.01021 -2.48129,-0.75546 -3.16406,1.52343 -0.71562,2.38853 -0.34515,2.86205 3.00781,3.85352 1.40798,0.41634 2.76227,0.83148 3.00977,0.92187 1.63793,0.59826 10.48216,-0.14677 12.15039,-1.02343 10.16975,-5.34421 8.05505,-15.77408 -4.5625,-22.49805 -13.05817,-6.95878 -8.63709,-16.7273 5.65039,-12.48437 2.75796,0.81902 2.73749,0.82866 3.2168,-1.70118 0.45307,-2.39138 -0.0586,-2.88204 -3.45703,-3.30664 -1.2625,-0.15774 -2.47083,-0.2477 -3.6211,-0.27539 z m 96.14453,0.04492 c -3.02796,-0.03081 -5.44114,0.17891 -6.29882,0.70899 -0.28474,0.17597 -0.44727,7.52016 -0.44727,20.25586 0,19.97952 7.8e-4,19.97976 3.48828,20.15625 7.72473,0.39092 16.4632,0.02281 18.83399,-0.79297 15.20075,-5.2305 17.32612,-29.16577 3.32812,-37.48047 -2.60478,-1.54721 -12.24277,-2.77987 -18.9043,-2.84766 z m 533.62891,0.18946 c -1.83544,-0.10597 -2.67685,0.69681 -9.41406,7.12304 -13.72668,13.09306 -12.49601,12.92682 -12.66211,1.70704 -0.12303,-8.31304 -0.12461,-8.3125 -2.59961,-8.3125 -4.00648,0 -3.89379,39.97459 0.11328,40.18359 2.5875,0.13496 2.58789,0.13514 2.58789,-7.45313 0,-7.58827 -10e-4,-7.58735 1.23633,-8.73828 3.48759,-3.24362 2.91468,-3.51774 9.78906,4.66992 3.38805,4.03529 7.06376,8.39985 8.16797,9.69922 2.09408,2.46419 3.61641,2.93137 6.79297,2.08008 1.46834,-0.3935 1.36125,-0.61826 -2.47461,-5.17578 -16.99536,-20.19287 -15.69928,-17.35511 -10.23633,-22.4375 14.08397,-13.10277 13.82871,-12.75134 9.56641,-13.25976 -0.32283,-0.03851 -0.60498,-0.0708 -0.86719,-0.08594 z m -220.63281,0.01953 c -1.11443,6.7e-4 -2.26811,0.03273 -3.46289,0.09765 -7.35429,0.39961 -7.35352,0.40079 -7.35352,20.42579 0,20.025 -0.002,20.02516 3.14844,20.2832 21.51171,1.76216 30.18073,-3.46794 31.14453,-18.79102 0.93075,-14.79681 -6.7602,-22.02575 -23.47656,-22.01562 z m 156.35742,0.04687 c -9.9615,0 -14.40349,3.53618 -13.86133,11.03125 0.30861,4.26626 2.38617,6.49911 10.03711,10.78516 6.47672,3.62826 9.15446,6.61904 8.5957,9.59766 -0.90365,4.8167 -6.68612,6.56883 -13.54687,4.10742 -1.73251,-0.62156 -3.47811,-1.23954 -3.88086,-1.375 -0.55475,-0.18661 -0.91038,0.27523 -1.4668,1.9082 -0.93268,2.7372 -0.55931,3.17634 3.64063,4.27149 11.54781,3.01113 20.12849,-0.9594 20.7539,-9.60547 0.37822,-5.22888 -1.69649,-7.85269 -10.17382,-12.86914 -13.34902,-7.89932 -9.99268,-16.81615 4.86718,-12.93164 2.87383,0.75126 2.9639,0.69446 3.3711,-2.08594 0.39547,-2.70039 0.005,-2.83399 -8.33594,-2.83399 z m -318.85547,0.02344 c -2.81324,0.0059 -5.13945,0.14757 -5.64648,0.46094 -0.22045,0.13624 -0.39844,9.15539 -0.39844,20.24414 0,19.99844 0.002,19.99805 2.47656,19.99805 2.475,0 2.47461,2.3e-4 2.47461,-8.00977 0,-9.1302 -0.015,-9.08984 3.42383,-9.08984 2.26219,0 8.84476,7.27109 14.77148,16.3164 0.84417,1.28835 1.97972,1.47914 4.97852,0.83789 2.19551,-0.46947 2.04903,-0.70996 -9.10938,-14.84179 -2.81687,-3.56751 -2.79554,-3.42414 -0.67773,-4.51563 8.39305,-4.32565 8.19284,-16.44126 -0.33789,-20.46484 -1.22576,-0.57815 -7.26634,-0.94532 -11.95508,-0.93555 z m 37.64844,0.11914 c -3.52686,-0.02436 -6.88562,0.08802 -7.31836,0.35547 -0.20588,0.12723 -0.375,9.22338 -0.375,20.21289 0,19.98092 0,19.98087 3.9375,20.13086 9.17793,0.3496 10.84017,0.3034 13.40625,-0.36133 9.78476,-2.53472 11.98739,-14.40018 3.55664,-19.1582 -2.95793,-1.66937 -2.97473,-1.81968 -0.4707,-4.16602 5.5975,-5.24504 3.08738,-14.66435 -4.41016,-16.55078 -1.1052,-0.27807 -4.79932,-0.43852 -8.32617,-0.46289 z m 176.0625,0.07813 c -1.26791,0 -2.49304,0.18898 -2.61524,0.5664 -0.19823,0.61212 -2.31324,27.26774 -2.78515,35.10157 -0.29142,4.8375 -0.29108,4.83593 1.8164,4.83593 2.64681,0 2.33868,1.23276 3.57618,-14.30078 1.35323,-16.98672 1.48459,-17.17023 5.24023,-7.29883 1.27121,3.34125 2.98751,7.69579 3.8125,9.67578 0.82497,1.98001 2.20967,5.4229 3.07813,7.6504 3.21957,8.25778 5.13578,6.78822 12.57617,-9.63282 8.4163,-18.57493 7.72617,-18.43448 8.68359,-1.76367 0.97133,16.91361 0.70218,15.66992 3.4043,15.66992 2.93566,0 2.82779,1.61154 1.34765,-20.40429 -1.42348,-21.17395 -1.20455,-20.20278 -4.49414,-20.00782 -2.33271,0.13824 -2.33179,0.13835 -9.47656,16.03907 -3.92959,8.74539 -7.26597,16.02181 -7.41406,16.16992 -0.55377,0.55377 -1.23365,-0.92971 -7.26563,-15.8711 -3.39719,-8.415 -6.37316,-15.5539 -6.61328,-15.86328 -0.29295,-0.37742 -1.60319,-0.5664 -2.87109,-0.5664 z m -397.70508,0.002 c -1.60068,0.07198 -2.0962,1.63089 -9.70898,21.60352 -0.42451,1.11375 -2.11438,5.46055 -3.75586,9.66015 -3.6643,9.37477 -3.65313,9.24024 -0.74024,9.24024 2.5608,0 2.22802,0.48089 5.28125,-7.65039 0.88287,-2.35125 1.8282,-4.42363 2.10156,-4.60547 0.94025,-0.62541 14.96351,-0.40466 15.50196,0.24414 0.39016,0.47012 3.07994,7.13775 4.72851,11.7207 0.18974,0.5275 0.56012,0.7343 1.00782,0.5625 0.3894,-0.14943 1.52363,-0.27148 2.52148,-0.27148 2.30265,0 2.28021,-0.16862 -1.21484,-9 -1.42026,-3.58875 -3.25296,-8.24586 -4.07227,-10.34961 -0.81931,-2.10375 -2.08647,-5.34493 -2.8164,-7.20118 -0.72993,-1.85625 -2.17789,-5.60109 -3.21876,-8.32226 -2.11486,-5.52903 -2.18525,-5.61109 -4.83593,-5.62109 -0.29771,-0.0011 -0.55063,-0.02005 -0.7793,-0.0098 z m -32.84766,0.0039 c -8.77164,0 -16.04831,0.16064 -16.16992,0.35742 -1.7297,2.79872 0.35843,4.14258 6.4375,4.14258 8.04514,0 7.23047,-2.05606 7.23047,18.23828 0,9.43801 0.13383,17.29595 0.29883,17.46093 0.165,0.16501 1.28031,0.30079 2.47656,0.30079 2.175,0 2.17383,-9.4e-4 2.17383,-17.46094 0,-20.64628 -0.82718,-18.53906 7.29102,-18.53906 6.21,0 6.20898,0 6.20898,-2.25 0,-2.25 0.001,-2.25 -15.94727,-2.25 z m 114.77344,0 c -8.7852,0 -16.0545,0.15031 -16.15429,0.33593 -1.58672,2.95091 0.27304,4.16407 6.38671,4.16407 8.05912,0 7.24219,-2.0577 7.24219,18.23828 0,9.43801 0.13383,17.29595 0.29883,17.46093 0.165,0.16501 1.28031,0.30079 2.47656,0.30079 2.175,0 2.17383,-0.0012 2.17383,-17.4961 0,-20.55534 -0.82284,-18.43547 7.23047,-18.60351 6.04532,-0.12614 6.04449,-0.12618 6.18164,-2.26368 0.13716,-2.13749 0.13716,-2.13671 -15.83594,-2.13671 z m 209.3457,0 c -4.30515,0 -4.79241,40.16221 -0.49023,40.41015 2.35665,0.13581 2.35626,0.13516 2.47461,-15.48828 0.13756,-18.1597 -0.0761,-17.57987 4.34765,-11.7832 1.75657,2.30176 3.8176,4.99633 4.58008,5.98633 2.28398,2.96546 9.33126,12.39293 11.58594,15.5 1.15786,1.59559 2.78792,3.67199 3.6211,4.61328 1.62472,1.83559 3.6139,2.27857 5.15429,1.14843 2.32035,-1.70231 0.67254,-40.1621 -1.7207,-40.1621 -2.25,0 -2.24961,-2.7e-4 -2.47461,14.8125 -0.15467,10.18366 -0.37864,14.86531 -0.71875,14.97851 -0.45233,0.15054 -7.41607,-8.74285 -18.83203,-24.05273 -4.446,-5.9625 -4.44606,-5.96289 -7.52735,-5.96289 z m 158.44727,0 c -2.73118,0 -2.73157,-7.8e-4 -2.58789,15.63671 0.18122,19.7153 0.96409,21.8811 8.83008,24.4668 9.01305,2.96277 18.97583,-0.45339 22.30273,-7.64844 2.53017,-5.47199 1.27341,-32.23046 -1.51367,-32.23046 -2.475,0 -2.47422,3.9e-4 -2.69922,14.40039 -0.24579,15.73099 -0.34463,16.30198 -3.22656,18.99023 -4.14338,3.86486 -13.28682,3.22264 -16.29102,-1.14453 -2.01165,-2.92436 -2.08398,-3.54945 -2.08398,-18.32617 0,-14.14571 7.6e-4,-14.14453 -2.73047,-14.14453 z m -188.0332,0.18359 c -1.74351,-0.11324 -1.63047,0.21008 -6.48438,12.64062 -11.8229,30.27778 -11.11095,27.77455 -7.8457,27.58594 2.35471,-0.13602 2.35312,-0.13593 4.43554,-5.49609 3.02351,-7.78237 1.87245,-7.01367 10.52735,-7.01367 8.73058,0 7.84192,-0.59079 10.6582,7.07031 0.97439,2.65064 1.94503,5.03018 2.1582,5.28711 0.79213,0.95489 4.96795,0.26575 4.93555,-0.81445 -0.15939,-5.34919 -15.27572,-39.21875 -17.5039,-39.21875 -0.34471,0 -0.63179,-0.02484 -0.88086,-0.04102 z m -106.46094,0.04102 c -11.25,0 -11.24977,-7.9e-4 -11.36719,19.57421 -0.0646,10.76625 -0.0187,19.83107 0.10156,20.14454 0.7597,1.98026 23.86524,0.3389 23.86524,-1.69532 0,-2.025 3.9e-4,-2.02484 -9.22461,-2.27343 -5.07375,-0.13672 -9.28111,-0.28899 -9.34961,-0.3379 -0.0685,-0.04889 -0.0685,-3.07397 0,-6.7246 0.12453,-6.6375 0.12422,-6.6386 7.88672,-6.76172 7.7625,-0.12313 7.76367,-0.12282 7.76367,-2.35157 0,-2.22874 -0.001,-2.22843 -7.76367,-2.35156 -7.7625,-0.12313 -7.76161,-0.12259 -7.88672,-6.01953 -0.15725,-7.41198 -0.85442,-6.87832 9.1582,-7.03125 8.06679,-0.12321 8.06641,-0.12344 8.06641,-2.14844 0,-2.025 0,-2.02343 -11.25,-2.02343 z m 369.90039,0 c -2.25,0 -2.24979,-7.9e-4 -2.36719,19.57421 -0.0646,10.76625 -0.021,19.82735 0.0977,20.13672 0.13315,0.34709 1.08446,0.5625 2.48437,0.5625 2.26876,0 2.26948,7.8e-4 2.15235,-20.13672 -0.11714,-20.1375 -0.11719,-20.13671 -2.36719,-20.13671 z m -303.25977,3.36328 c 1.92953,-0.05471 4.49961,0.29334 6.06055,0.96484 5.23953,2.25399 5.75806,9.43818 0.88672,12.2832 -2.16522,1.26455 -9.18606,1.63259 -9.61914,0.50391 -0.54338,-1.41599 -0.33464,-12.62044 0.24609,-13.20117 0.34059,-0.3406 1.26807,-0.51796 2.42578,-0.55078 z m 122.8125,0.35156 c 3.82597,-0.03173 9.19001,0.65994 11.14258,1.61523 11.90778,5.82593 11.83206,23.27828 -0.1289,29.58399 -2.43369,1.28304 -13.65995,1.89617 -14.72852,0.80469 -1.29528,-1.32306 -0.73994,-31.38208 0.58594,-31.71485 0.75034,-0.18832 1.85358,-0.27848 3.1289,-0.28906 z m -307.51953,0.01953 c 3.52325,0.0675 8.15272,0.70166 10.17188,1.625 11.64317,5.3242 11.63645,24.3788 -0.01,29.5625 -2.84466,1.26615 -13.57604,1.85335 -14.60742,0.79883 -0.90104,-0.92127 -0.80492,-30.68519 0.10156,-31.4375 0.51358,-0.42624 2.22981,-0.58933 4.34375,-0.54883 z m 149.94141,0.08984 c 6.96976,0 10.23247,2.77638 9.77539,8.31836 -0.21339,2.58737 -2.172,5.10646 -4.7207,6.07227 -7.27641,2.75735 -9.25391,1.31702 -9.25391,-6.74024 0,-7.74809 -0.0549,-7.65039 4.19922,-7.65039 z m 75.14258,4.25 c 0.47342,-0.12928 1.04668,0.94605 2.24218,4.07618 0.66172,1.7325 1.79242,4.66914 2.51368,6.52539 0.92538,2.38179 1.17601,3.54054 0.85156,3.9375 -0.67972,0.83173 -10.64013,0.78909 -10.96094,-0.04688 -0.2317,-0.60388 4.45659,-13.6656 5.15625,-14.36523 0.0652,-0.06515 0.12963,-0.10849 0.19727,-0.12696 z m -261.42578,0.08789 c 0.52934,-0.08742 1.12808,1.19056 2.41015,4.54493 2.71187,7.09524 3.35934,9.14389 3.10352,9.81054 -0.37631,0.98065 -10.54111,0.96254 -10.91797,-0.01953 -0.24009,-0.62565 3.18371,-10.48139 4.66797,-13.4375 0.26963,-0.53701 0.49572,-0.8587 0.73633,-0.89844 z m 221.04687,13.76758 c 2.08161,-0.04397 5.03272,0.25098 7.0625,0.81836 6.32799,1.76885 7.56898,10.11583 1.87891,12.63282 -2.18263,0.96551 -6.51515,1.37625 -9.6543,0.91601 -2.09196,-0.3067 -3.49827,-11.75029 -1.70898,-13.90625 0.2369,-0.28544 1.1729,-0.43455 2.42187,-0.46094 z M 31.228311,103.14305 c 0.61342,-0.0239 1.51289,0.0775 2.90234,0.25195 5.90896,0.74195 6.19874,1.2465 2.69727,4.69532 -2.25092,2.21707 -2.25155,2.2174 -3.60156,1.41992 -1.66521,-0.98366 -2.24805,-0.66987 -2.24805,1.20703 0,1.75692 -0.96257,3.22391 -2.70508,4.125 -5.26641,2.72336 -10.27179,-5.36776 -5.67773,-9.17774 0.64891,-0.53816 0.99332,-0.51979 2.44922,0.13672 2.05763,0.92787 3.92918,0.41114 4.56445,-1.25976 0.36952,-0.97193 0.59677,-1.35866 1.61914,-1.39844 z"
       id="path4287"
       inkscape:connector-curvature="0" />
    <path
       style="display:inline;fill:#b2b2b2;fill-opacity:1"
       d="m 444.01017,77.884454 c -1.76897,0.0124 -3.14649,2.72857 -3.14649,6.960939 0,6.32466 -0.0853,6.52598 -2.47461,5.86328 -6.25145,-1.734 -12.38783,4.23935 -12.36523,12.035147 0.0192,6.6496 2.94675,10.07986 8.99023,10.53516 1.11375,0.0839 2.07006,0.18747 2.12696,0.23047 0.0568,0.0432 0.93742,-0.25411 1.95703,-0.66211 1.14485,-0.458 1.96762,-0.57469 2.14843,-0.30469 0.54666,0.8159 1.95895,1.05598 3.60352,0.61328 1.59827,-0.4302 2.56106,-32.798296 1.02148,-34.337886 -0.6403,-0.64031 -1.27167,-0.93772 -1.86132,-0.93359 z m 99.77929,0.61719 c -0.46424,-0.0316 -1.0808,0.0657 -1.90625,0.18945 -2.01946,0.30285 -2.01953,0.30242 -2.01953,16.458979 0,18.053397 -0.27135,16.530547 3.12305,17.560547 2.4808,0.7528 9.41426,0.47829 11.22461,-0.44531 11.11374,-5.6698 5.83078,-24.894827 -5.89649,-21.457027 -2.98299,0.8739 -2.80033,1.23345 -2.98437,-5.86328 -0.13235,-5.103089 -0.14828,-6.348659 -1.54102,-6.443359 z m 127.97266,1.28125 c -0.60482,-0.0193 -1.35597,0.16918 -2.41211,0.34375 -2.28069,0.37697 -2.24062,0.75045 1.06445,9.882809 1.51362,4.1823 3.54859,9.83023 4.52149,12.552727 4.02358,11.2592 3.35343,10.0575 5.71679,10.2461 1.147,0.0916 2.22135,0.20304 2.38672,0.24804 1.64966,0.445 1.73327,0.26402 8.06446,-17.583977 5.63427,-15.883379 5.45479,-15.037769 3.20898,-15.251949 -3.13439,-0.29891 -4.28258,0.13899 -4.9043,1.86914 -0.31104,0.865549 -2.01937,5.825929 -3.79687,11.023429 -1.77746,5.1975 -3.37004,9.607587 -3.53906,9.800787 -0.16898,0.1933 -2.19228,-4.918627 -4.4961,-11.361327 -3.49819,-9.782829 -3.99998,-11.711579 -5.81445,-11.769529 z m -289.94727,0.17968 c -2.35247,-0.0606 -2.15234,1.90715 -2.15234,16.576179 0,16.148897 3.9e-4,16.150387 9.90039,16.150387 9.9,0 9.90039,4.1e-4 9.90039,-2.46289 0,-2.4633 -7.8e-4,-2.4637 -6.86328,-2.58789 -6.8625,-0.12421 -6.86144,-0.12546 -6.98047,-13.689457 -0.11903,-13.564049 -0.11876,-13.563329 -1.73437,-13.751949 -0.84879,-0.0991 -1.52744,-0.22039 -2.07032,-0.23438 z m 108.60157,1.27344 c -0.42105,-0.007 -0.85879,0.0628 -1.29102,0.21485 -1.73921,0.61164 -1.87361,4.569559 -0.18359,5.412099 2.43347,1.2132 5.09924,-1.16632 4.23047,-3.77734 -0.37679,-1.132389 -1.49271,-1.829109 -2.75586,-1.849609 z m 108.83203,8.988279 c -0.87955,0.0393 -1.89013,0.38007 -2.93164,1.0625 -0.85783,0.5621 -1.3099,0.64727 -1.53125,0.28907 -0.36566,-0.59171 -2.94352,-0.76633 -4.41016,-0.29883 -1.0125,0.3226 -1.01172,0.32768 -1.01172,10.867177 0,10.5447 -3.5e-4,10.54493 2.66797,10.54493 2.66832,0 2.66832,-8e-4 2.8125,-6.9668 0.17257,-8.338197 0.73769,-9.458977 4.76367,-9.458977 2.11985,0 2.11871,3.4e-4 2.50391,-2.41016 0.37552,-2.34994 -0.92828,-3.71536 -2.86328,-3.62891 z m -91.8086,0.20117 c -5.47594,0.0142 -8.42795,3.57752 -7.95312,9.855467 0.21492,2.8421 0.14086,3.30713 -0.59961,3.76953 -2.08539,1.3024 -2.53558,5.0603 -0.84961,7.0918 0.4626,0.5574 0.38514,0.84277 -0.43359,1.60547 -4.12749,3.8454 -0.8657,10.94048 5.58398,12.14648 8.51251,1.5917 14.62805,-2.2374 14.62305,-9.1582 -0.003,-4.9757 -0.61112,-5.52055 -7.19727,-6.43555 -9.15093,-1.2713 -11.08314,-2.91406 -3.43359,-2.91406 5.8986,-0.003 7.98906,-1.84779 8.38281,-7.400387 0.20335,-2.8673 0.32325,-3.18641 1.23828,-3.31641 2.72443,-0.38689 1.28223,-4.58398 -1.57617,-4.58398 -1.42313,-0.001 -3.80211,-0.20297 -5.28711,-0.44726 -0.88265,-0.14526 -1.71577,-0.21492 -2.49805,-0.2129 z m 21.50782,0.0254 c -8.98478,0.12821 -11.91353,8.91788 -3.05274,13.640617 5.40338,2.88 3.683,5.50912 -2.23828,3.41992 -3.04083,-1.0728 -5.09825,3.9321 -2.13086,5.1836 11.40327,4.8094 18.88283,-6.88194 8.39063,-13.115237 -4.61484,-2.7416 -3.59371,-4.73275 1.76367,-3.43945 2.36138,0.57 2.64101,0.32902 3.02734,-2.60938 0.30006,-2.282 0.29965,-2.28252 -2.78515,-2.82812 -1.05276,-0.18622 -2.04515,-0.26522 -2.97461,-0.25195 z m 118.74804,0.16406 c -2.48602,0.01 -5.08517,0.87652 -7.12109,2.66406 -5.66492,4.9739 -4.478,15.731337 2.11328,19.152337 3.99258,2.0723 13.72461,-0.16845 13.72461,-3.16015 0,-2.9318 -1.99489,-3.74483 -5.26563,-2.14453 -3.66331,1.7922 -7.7832,0.0718 -7.7832,-3.25 0,-1.029 0.055,-1.03688 5.51172,-1.04688 3.03188,-0.004 5.86766,-0.0154 6.30078,-0.0254 1.05494,-0.0232 1.14022,-6.129327 0.11328,-8.115227 -1.38702,-2.68217 -4.39744,-4.08647 -7.59375,-4.07422 z m -34.60937,0.0254 c -1.7539,0.025 -2.48426,0.30404 -3.87696,0.99805 -3.3822,1.68549 -5.09647,5.96396 -3.83593,9.572257 0.62001,1.7748 0.6097,1.81984 -0.71875,2.92774 -1.44909,1.2086 -1.92452,4.82035 -0.88867,6.75585 0.35046,0.6549 0.19905,1.22152 -0.67383,2.50782 -2.97756,4.3876 -0.0726,10.21329 5.70312,11.43359 10.2344,2.1623 18.3356,-5.17128 14.34766,-12.98828 -0.86261,-1.6909 -0.9035,-1.70966 -4.83789,-2.28906 -10.47605,-1.5427 -12.7779,-2.85109 -5.375,-3.05469 6.28974,-0.1731 9.67866,-3.40409 8.97265,-8.554687 -0.23872,-1.7418 -0.16125,-1.98889 0.69532,-2.21289 1.49115,-0.39 1.44843,-4.6433 -0.0469,-4.6543 -0.55687,-0.004 -2.73414,-0.11509 -4.83789,-0.24609 -2.15305,-0.13414 -3.57461,-0.21033 -4.62695,-0.19531 z m -44.51563,0.1289 c -0.47873,0.002 -1.11603,0.15933 -1.96484,0.37305 -3.73257,0.9399 -2.78528,19.282117 1.09961,21.291017 1.8306,0.9469 7.59163,0.96203 8.93164,0.0234 0.8149,-0.5708 1.03342,-0.582 1.33789,-0.0664 0.20011,0.3388 0.66781,0.72693 1.03906,0.86133 l 0,-0.002 c 0.64013,0.2317 1.88029,0.0919 3.77344,-0.42773 0.77045,-0.2115 0.82265,-0.54895 0.5625,-3.62695 -0.15777,-1.8661 -0.28711,-6.7035 -0.28711,-10.749997 0,-7.3571 -9e-5,-7.35743 -1.98828,-7.35743 -3.54316,0 -3.41211,-0.28796 -3.41211,7.49414 0,8.368297 -0.46037,9.320757 -4.39063,9.068357 -2.86015,-0.1836 -3.19912,-1.22155 -3.23242,-9.876947 -0.0216,-5.60145 -0.0326,-7.00972 -1.46875,-7.00391 z m -114.73828,0.125 c -0.65625,0.0128 -1.4629,0.19902 -2.50586,0.47852 -1.87606,0.5028 3.91657,20.667307 6.14258,21.382807 3.57647,1.1495 4.62888,0.22934 7.05469,-6.16406 1.11474,-2.938 2.0999,-5.412 2.1875,-5.5 0.0876,-0.0876 1.01057,2.39819 2.05273,5.52539 1.95385,5.863 2.18753,6.17545 4.62891,6.18945 3.30935,0.0194 2.80117,0.83897 7.7207,-12.46093 3.45303,-9.334997 3.4538,-9.257817 -0.1543,-9.257817 -3.0217,0 -2.71468,-0.4583 -5.64648,8.4375 -1.50727,4.573497 -1.17732,4.756697 -3.38867,-1.8789 -2.13835,-6.417 -2.33409,-6.65781 -5.25,-6.47071 -2.43315,0.1561 -1.89677,-0.67786 -5.26758,8.18164 -0.83574,2.196707 -1.6281,3.816307 -1.75977,3.599607 -0.13163,-0.2167 -0.89454,-2.62125 -1.69531,-5.343747 -1.54041,-5.23695 -2.15038,-6.75712 -4.11914,-6.71875 z m -47.11133,0.0977 c -0.51921,-0.0147 -1.21191,0.12816 -2.14257,0.30273 -3.15666,0.59221 -2.05435,18.803777 1.27929,21.138677 1.38136,0.9679 7.8568,0.98423 9.22852,0.0234 0.81491,-0.5708 1.03343,-0.5819 1.33789,-0.0664 0.20009,0.3389 0.66782,0.72919 1.03906,0.86719 0.37126,0.138 0.97836,0.17789 1.34961,0.0879 0.37125,-0.09 1.25525,-0.30306 1.96484,-0.47266 1.24034,-0.2964 1.28063,-0.38638 1.01368,-2.33398 -0.15271,-1.1142 -0.27735,-5.94659 -0.27735,-10.738287 0,-8.7152 -10e-4,-8.71507 -2.13867,-8.70507 -3.18741,0.0102 -3.13228,-0.1181 -3.3418,7.8125 -0.17996,6.811297 -0.23648,7.184977 -1.22851,7.988277 -1.70272,1.3788 -4.62809,1.05805 -5.95313,-0.65235 -0.0342,-0.0442 -0.1865,-3.42216 -0.33789,-7.505857 -0.23147,-6.24435 -0.23531,-7.70211 -1.79297,-7.74609 z m 83.16602,0.0898 c -2.39034,0.0252 -2.22461,0.76987 -2.22461,11.080077 0,10.5269 10e-4,10.52735 2.70117,10.52735 2.7,0 2.69922,-7.9e-4 2.69922,-10.80078 0,-10.799997 -9e-5,-10.798827 -1.98828,-10.798827 -0.45383,0 -0.84602,-0.0114 -1.1875,-0.008 z m 17.08594,4.25196 c 0.65571,-0.065 1.37771,0.19998 2.05859,0.88086 1.2497,1.2497 1.46833,3.1696 0.50586,4.437497 -1.18706,1.5638 -4.51876,0.85763 -4.78516,-1.013667 -0.34454,-2.42097 0.77814,-4.16158 2.22071,-4.30469 z m 106.46484,0.25586 c 2.32118,0 3.60712,2.71508 2.25977,4.771477 -0.51913,0.7922 -1.1168,1.07813 -2.25977,1.07813 -1.95605,0 -3.12076,-1.507057 -2.6582,-3.439457 0.45261,-1.8913 1.02475,-2.41015 2.6582,-2.41015 z m -175.51562,0.0781 c 0.80561,0.0499 1.61781,0.34591 2.3789,0.94141 1.02839,0.8046 0.75305,9.137507 -0.33789,10.228507 -2.27627,2.2762 -6.71549,0.8598 -7.63867,-2.4375 -1.27559,-4.556007 2.10668,-8.948717 5.59766,-8.732417 z m 209.38281,0.0606 c 1.46387,-0.0582 2.80859,0.73451 2.80859,2.13476 0,0.9335 -2.84677,1.18306 -5.40039,0.47266 -1.12503,-0.313 -1.12523,-0.31405 0.0918,-1.53125 0.70043,-0.7005 1.62168,-1.04127 2.5,-1.07617 z m -97.625,0.18359 c 4.77221,0.1245 6.28863,9.173537 1.8789,11.210937 -4.89838,2.2632 -6.37345,1.00338 -6.19921,-5.29492 0.14373,-5.196497 0.73746,-6.009017 4.32031,-5.916017 z m 112.76562,10.906247 c -0.83489,-0.035 -1.62951,0.18032 -2.17578,0.72656 -0.84195,0.84201 -0.95405,4.26464 -0.16601,5.05274 1.88105,1.881 6.20898,-0.0373 6.20898,-2.75195 0,-1.65935 -2.03042,-2.95023 -3.86719,-3.02735 z m 35.81836,0.0195 c -3.15166,0 -4.68103,4.31217 -2.10937,5.94727 0.98955,0.6292 4.22113,0.38702 4.84375,-0.36328 1.75986,-2.1205 0.0643,-5.58399 -2.73438,-5.58399 z m -87.77539,7.1211 c 1.33557,0.005 3.31129,0.28177 6.21289,0.77343 2.96311,0.502 1.54546,4.1415 -1.99609,5.125 -2.01753,0.5607 -2.19821,0.5574 -3.9668,-0.0625 -2.08588,-0.7312 -2.92578,-1.68904 -2.92578,-3.33984 0,-1.75675 0.44983,-2.50384 2.67578,-2.49609 z m -106.07617,0.0996 c 2.61233,-0.0529 6.95082,0.55042 7.66406,1.26367 0.90166,0.9017 -0.31367,2.95571 -2.36914,4.00391 -2.28739,1.1666 -2.73931,1.19776 -5.11328,0.35156 -2.97631,-1.0609 -4.09313,-4.00873 -2.01953,-5.32813 0.28895,-0.18385 0.96711,-0.2734 1.83789,-0.29101 z"
       id="path4251"
       inkscape:connector-curvature="0" />
    <path
       id="path4283"
       d="m 503.54959,123.66526 c -6.25194,-1.07189 -9.50505,-6.89388 -5.79078,-10.36353 1.47586,-1.37866 1.47586,-1.37866 0.50517,-3.10582 -1.55408,-2.76506 -1.04252,-4.78742 1.58265,-6.25651 0.67086,-0.37546 0.69997,-0.65357 0.23188,-2.21593 -2.20576,-7.362227 1.37903,-10.666557 10.93973,-10.083867 5.17045,0.31512 7.38783,1.92709 3.825,2.78062 -1.08824,0.2607 -1.11987,0.37353 -0.96818,3.45364 0.24966,5.069827 -2.3014,7.478647 -7.69649,7.267327 -4.03865,-0.1582 -5.28534,0.29464 -5.28534,1.91982 0,1.42976 1.81975,2.09951 7.93795,2.92152 6.87969,0.92433 7.36205,1.29766 7.36205,5.69817 0,5.51321 -5.77755,9.16176 -12.64364,7.98456 z m 6.27291,-3.56288 c 1.83397,-0.93563 2.77074,-2.47103 2.77074,-4.54144 0,-3.26465 -10.74807,-4.19909 -12.42757,-1.08045 -2.28987,4.25201 4.54379,8.23036 9.65682,5.62189 z m -0.9914,-18.24317 c 2.29361,-1.60652 2.42168,-4.763127 0.27401,-6.754547 -1.66253,-1.5416 -3.43958,-1.47988 -5.09648,0.17701 -3.51387,3.51386 0.79871,9.395897 4.82247,6.577537 z m 101.41213,21.94619 c -7.35016,-1.23039 -10.87474,-7.90553 -5.83582,-11.05239 1.12392,-0.7019 1.12009,-1.33521 -0.0144,-2.36172 -1.55138,-1.40399 -1.22662,-4.07944 0.71055,-5.85382 1.61055,-1.47521 1.61055,-1.47521 0.82075,-3.69898 -2.27309,-6.399967 1.68035,-9.753177 10.8437,-9.197417 4.93852,0.29952 7.69242,2.15939 3.9807,2.68835 -0.89964,0.12821 -0.96435,0.37643 -0.9,3.45326 0.11451,5.478917 -2.32164,7.667487 -8.10041,7.277027 -2.90197,-0.19608 -3.31273,-0.1185 -4.16251,0.78602 -2.0748,2.20854 -1.07451,2.80181 6.78367,4.02344 7.15334,1.11205 8.02107,1.72503 8.02283,5.66754 0,4.5068 -6.39842,9.56935 -10.76945,8.5183 -0.14013,-0.0337 -0.76108,-0.14603 -1.37983,-0.24961 z m 5.17959,-3.48703 c 1.67819,-0.70119 3.36605,-3.02057 3.36875,-4.62921 0.005,-2.7024 -9.67158,-4.33794 -11.76994,-1.98946 -3.71673,4.15975 2.52229,9.07502 8.40118,6.61867 z m -0.0703,-18.9056 c 1.72863,-1.602047 1.6731,-4.333327 -0.12469,-6.131097 -2.56473,-2.56473 -6.33461,-0.76741 -6.33461,3.02007 0,3.810457 3.75377,5.618417 6.4593,3.111027 z m -209.45525,9.52543 c -4.1797,-2.81029 -3.85309,-20.641727 0.34856,-19.029397 0.46122,0.17698 0.5974,1.83028 0.5974,7.25298 0,8.836777 1.87553,11.500187 6.44208,9.148267 2.92617,-1.50706 3.00792,-1.75743 3.00792,-9.211447 0,-6.86081 0,-6.86081 1.39447,-7.16708 2.11338,-0.46418 2.16793,-0.22119 2.22369,9.903687 0.0563,10.22257 -0.71986,12.47687 -3.1751,9.22188 -0.77544,-1.02803 -0.77544,-1.02803 -2.77633,-0.0594 -2.73182,1.32246 -6.04372,1.29803 -8.06269,-0.0595 z m 24.45292,-0.12999 c -8.69417,-5.21073 -3.72342,-19.163077 6.86804,-19.277897 3.6,-0.039 3.6,-0.039 3.825,-5.88902 0.225,-5.850016 0.225,-5.850016 1.91821,-5.990016 2.34662,-0.19403 2.53197,31.966823 0.18581,32.235633 -0.97587,0.11181 -1.32759,-0.071 -1.51497,-0.7875 -0.30762,-1.17634 -1.2483,-1.18781 -2.71625,-0.0331 -1.75198,1.37809 -6.05205,1.24853 -8.56584,-0.25808 z m 8.93898,-3.02139 c 2.35742,-1.58716 2.62593,-11.546547 0.34317,-12.727007 -2.96667,-1.53413 -7.46649,0.12611 -8.76501,3.23392 -2.77641,6.644847 2.99304,13.148147 8.42184,9.493087 z m 82.41656,3.71544 c -1.04886,-0.42159 -1.34645,-1.91223 -0.61286,-3.06994 0.30411,-0.47987 0.59315,-0.49803 1.36364,-0.0857 1.43352,0.76719 5.59795,0.81662 6.49098,0.077 1.90534,-1.57796 0.75199,-3.3834 -3.77375,-5.9074 -7.75687,-4.326027 -3.85852,-12.404027 5.32292,-11.029887 4.35069,0.65113 3.78976,3.48079 -0.60858,3.07006 -2.24001,-0.20917 -3.1068,-0.10482 -4.00208,0.48179 -2.24964,1.47403 -1.49022,2.61239 4.06463,6.092847 4.17865,2.61819 4.93915,6.01939 2.00254,8.95602 -1.8049,1.80488 -7.3669,2.57298 -10.24744,1.41514 z m 21.46122,0.0373 c -3.40335,-1.03271 -3.14951,0.36221 -3.01721,-16.579817 0.11849,-15.168476 0.11849,-15.168476 1.80599,-15.308136 1.6875,-0.13966 1.6875,-0.13966 1.6875,6.412506 0,3.60369 0.15187,6.55387 0.3375,6.55595 0.18562,0.002 1.6699,-0.33765 3.29836,-0.75494 6.91241,-1.77127 11.55933,2.28582 11.11896,9.707597 -0.47506,8.00626 -7.1968,12.40479 -15.2311,9.96685 z m 8.136,-3.68284 c 7.48089,-4.2045 1.73709,-16.416067 -5.891,-12.524507 -2.31903,1.1831 -2.6626,11.768727 -0.41872,12.902407 1.6974,0.85758 4.39942,0.69575 6.30972,-0.3779 z m 16.86527,3.68413 c -4.69458,-1.92146 -5.0647,-21.432677 -0.37242,-19.632077 0.45878,0.17604 0.59742,1.75223 0.59742,6.79072 0,9.636667 1.8077,11.967707 7.16243,9.235937 2.26026,-1.1531 2.28757,-1.25867 2.28757,-8.840617 0,-6.91756 0.48906,-8.15058 2.87037,-7.23678 0.99563,0.38205 1.2825,18.698847 0.30614,19.545727 -0.98262,0.85228 -2.33082,0.67701 -2.59614,-0.3375 -0.12942,-0.495 -0.47264,-0.9 -0.76271,-0.9 -0.29002,0 -1.32174,0.405 -2.29266,0.9 -1.82884,0.93241 -5.49157,1.17384 -7.2,0.47459 z m 74.0025,-0.81207 c -4.52461,-2.30056 -6.19906,-8.87463 -3.61795,-14.204697 3.77878,-7.8033 15.56545,-6.44228 15.56545,1.79736 0,3.069837 0,3.069837 -6.3,3.294837 -6.3,0.225 -6.3,0.225 -6.44332,1.47203 -0.4878,4.24476 5.16109,7.08765 9.59332,4.82797 2.32151,-1.18358 2.8485,-1.1364 3.20576,0.28702 0.8325,3.31684 -7.14551,4.9954 -12.00326,2.52548 z m 8.42999,-12.090157 c 0.9693,-2.52602 -2.71067,-5.24998 -5.60457,-4.14856 -1.76319,0.67107 -3.52395,3.0709 -3.08754,4.20816 0.39208,1.02166 8.298,0.96745 8.69211,-0.0596 z m 9.68251,12.787657 c -0.66343,-0.66342 -0.69385,-1.93168 -0.0742,-3.08959 0.9117,-1.70358 4.03416,-0.63578 4.03416,1.37959 0,1.82217 -2.68735,2.98263 -3.96,1.71 z m 35.45163,-0.37564 c -1.0984,-2.05236 0.51566,-4.05531 2.70734,-3.3597 1.06119,0.33682 1.67386,2.31051 1.03441,3.33249 -0.72666,1.16137 -3.12543,1.17882 -3.74175,0.0272 z m -315.68338,-0.0908 c -1.39862,-3.64474 0.19607,-29.818603 1.81676,-29.818603 1.8,0 1.8,0 2.025,13.500016 0.225,13.499997 0.225,13.499997 6.975,13.724997 6.75,0.225 6.75,0.225 6.75,1.575 0,1.49828 -17.00433,2.48427 -17.56676,1.01859 z m 75.64191,-2.93109 c -0.6691,-1.91813 -1.3936,-4.095 -1.61005,-4.8375 -0.21645,-0.7425 -1.01151,-3.213027 -1.76684,-5.490047 -1.6627,-5.0126 -1.68111,-5.44055 -0.24925,-5.79991 2.20036,-0.55226 2.03355,-0.84027 4.77535,8.245477 1.96007,6.49516 2.23574,6.5158 4.59914,0.34448 3.48426,-9.098167 3.1698,-8.538707 4.88214,-8.685527 1.58238,-0.13569 4.42021,5.9258 5.59818,11.957387 0.31918,1.63459 0.92308,2.23124 1.58665,1.56768 0.33669,-0.33673 4.88453,-12.891617 4.88453,-13.484477 0,-0.0715 0.81,-0.13006 1.8,-0.13006 0.99,0 1.79779,0.0506 1.79514,0.1125 -0.0288,0.66393 -2.223,6.75739 -5.54999,15.412497 -2.6176,6.8097 -4.68859,6.20856 -7.57278,-2.19813 -2.75647,-8.034407 -2.94039,-8.138237 -4.87471,-2.75187 -3.53367,9.83991 -3.17597,9.225 -5.36585,9.225 -1.71513,0 -1.71513,0 -2.93166,-3.4875 z m 32.47119,3.20882 c -1.03378,-1.03378 -0.32089,-18.640817 0.77495,-19.140127 2.45844,-1.12013 2.53269,-0.82242 2.40021,9.620627 -0.12321,9.70666 -0.83975,11.85494 -3.17516,9.5195 z m 101.7,0 c -0.58383,-0.58383 -0.37877,-18.383887 0.21865,-18.981317 0.878,-0.878 2.66324,-0.65863 2.92964,0.36 0.29776,1.13866 0.75285,1.13211 2.32951,-0.0336 2.60105,-1.92303 5.00085,-1.71942 5.00085,0.4243 0,1.85925 0,1.85925 -1.92487,1.85925 -4.14756,0 -4.98816,1.57751 -5.27513,9.899997 -0.22531,6.53389 -1.23102,8.51897 -3.27865,6.47133 z m 88.90614,-0.26215 c -0.25776,-0.3213 -1.08505,-2.40667 -1.83839,-4.63417 -0.75334,-2.2275 -3.00532,-8.564377 -5.0044,-14.081947 -4.20534,-11.607006 -4.12578,-11.150766 -2.01371,-11.546996 2.01893,-0.37875 1.6817,-0.84604 3.75242,5.199756 0.96624,2.82105 2.29572,6.54669 2.95434,8.27919 0.65866,1.7325 1.50493,4.1625 1.88059,5.4 2.26751,7.469177 2.93751,7.423067 5.52803,-0.38043 5.9656,-17.970406 6.00345,-18.056036 8.04978,-18.207956 2.07306,-0.1539 2.15779,0.0189 1.22143,2.491776 -0.35334,0.93313 -2.39805,6.65786 -4.54383,12.72161 -5.90283,16.680827 -5.10124,15.051917 -7.48426,15.209167 -1.2713,0.0839 -2.20896,-0.0847 -2.502,-0.45 z M 488.38323,85.326293 c -1.52744,-1.52744 0.26883,-4.072136 2.16001,-3.060015 1.58836,0.850065 0.90085,3.600015 -0.9,3.600015 -0.396,0 -0.963,-0.243 -1.26,-0.54 z"
       style="display:inline;fill:#a8a8a8;fill-opacity:1"
       inkscape:connector-curvature="0" />
  </g>
</svg>
