<?xml version="1.0" encoding="UTF-8" standalone="no"?>
<svg
   xmlns:dc="http://purl.org/dc/elements/1.1/"
   xmlns:cc="http://creativecommons.org/ns#"
   xmlns:rdf="http://www.w3.org/1999/02/22-rdf-syntax-ns#"
   xmlns:svg="http://www.w3.org/2000/svg"
   xmlns="http://www.w3.org/2000/svg"
   xmlns:sodipodi="http://sodipodi.sourceforge.net/DTD/sodipodi-0.dtd"
   xmlns:inkscape="http://www.inkscape.org/namespaces/inkscape"
   version="1.0"
   width="700.000000pt"
   height="700.000000pt"
   viewBox="0 0 700.000000 700.000000"
   preserveAspectRatio="xMidYMid meet"
   id="svg2"
   inkscape:version="0.91 r13725"
   sodipodi:docname="safari-pinned-tab.svg">
  <defs
     id="defs12" />
  <sodipodi:namedview
     pagecolor="#ffffff"
     bordercolor="#666666"
     borderopacity="1"
     objecttolerance="10"
     gridtolerance="10"
     guidetolerance="10"
     inkscape:pageopacity="0"
     inkscape:pageshadow="2"
     inkscape:window-width="1621"
     inkscape:window-height="778"
     id="namedview10"
     showgrid="false"
     inkscape:zoom="0.26971429"
     inkscape:cx="437.5"
     inkscape:cy="437.5"
     inkscape:window-x="0"
     inkscape:window-y="225"
     inkscape:window-maximized="0"
     inkscape:current-layer="svg2" />
  <metadata
     id="metadata4">
Created by potrace 1.14, written by Peter Selinger 2001-2017
<rdf:RDF>
  <cc:Work
     rdf:about="">
    <dc:format>image/svg+xml</dc:format>
    <dc:type
       rdf:resource="http://purl.org/dc/dcmitype/StillImage" />
  </cc:Work>
</rdf:RDF>
</metadata>
  <g
     transform="matrix(0.1,0,0,-0.1,-3.3898305e-5,702.9661)"
     id="g6"
     style="fill:#000000;stroke:none">
    <path
       d="m 3278,6995 c -1,-1 -42,-5 -89,-9 -47,-4 -95,-8 -105,-10 -10,-2 -41,-7 -69,-10 -335,-44 -715,-158 -1030,-312 -180,-87 -448,-247 -555,-331 -8,-6 -51,-40 -95,-74 C 993,5983 685,5626 460,5235 413,5152 290,4908 290,4895 c 0,-3 -9,-24 -20,-48 C 213,4724 113,4412 84,4265 82,4254 74,4211 65,4170 36,4023 29,3970 13,3800 -2,3635 5,3208 25,3089 c 2,-13 6,-46 9,-74 9,-78 22,-152 51,-285 21,-96 91,-339 114,-395 5,-11 25,-65 46,-120 64,-170 213,-461 314,-615 213,-323 469,-603 771,-845 92,-74 370,-265 386,-265 4,0 15,-6 23,-14 47,-41 413,-212 576,-270 79,-27 261,-84 291,-90 10,-2 57,-13 104,-25 109,-26 200,-43 299,-57 25,-3 57,-8 71,-10 162,-25 683,-25 841,1 13,2 47,7 74,10 71,10 87,13 115,18 14,3 43,8 65,12 115,21 314,74 455,122 188,64 473,192 614,278 32,19 62,35 67,35 5,0 9,5 9,10 0,6 5,10 10,10 15,0 220,141 330,227 152,118 324,280 450,422 36,41 70,79 76,85 6,6 48,61 94,121 150,197 277,405 383,628 26,53 47,99 47,102 0,2 11,28 24,57 57,127 151,421 182,573 17,81 54,301 59,350 4,33 9,71 11,85 9,47 11,525 4,605 -15,157 -21,210 -25,225 -2,8 -7,35 -10,60 -17,129 -80,384 -136,552 -348,1036 -1168,1857 -2204,2206 -168,57 -420,119 -555,137 -19,3 -46,7 -60,10 -13,2 -52,7 -86,11 -33,3 -74,8 -90,10 -33,5 -540,14 -546,9 z"
       id="path8"
       inkscape:connector-curvature="0" />
  </g>
  <path
     style="display:inline;fill:#c1f977;fill-opacity:1"
     d="m 476.58002,103.31267 c -31.18365,-0.14826 -69.25813,10.57694 -108.17412,33.85116 -9.48057,5.66999 -9.48057,5.67176 -17.25055,-0.863 -14.49174,-12.18797 -31.52631,-5.76607 -34.557,13.03395 -0.95908,5.94912 -0.57948,6.63044 4.75118,8.5011 9.36469,3.28625 9.28003,8.68134 -0.37655,25.32588 -9.22603,15.90257 -13.9399,26.93699 -21.64116,50.66795 -5.67749,17.49447 -9.98204,20.96079 -15.50382,12.47743 -8.28877,-12.73428 -29.85692,-11.62475 -35.4385,1.82282 -5.44253,13.11234 2.13715,31.33927 10.03937,24.14023 13.6952,-12.47625 18.67581,2.79188 8.66128,26.55992 -4.5019,10.6851 -4.81197,12.67507 -2.75616,17.65553 1.27441,3.08698 2.56006,9.37835 2.86041,13.97765 0.30021,4.59931 1.12908,11.07527 1.83485,14.39701 2.3384,11.00597 -6.64933,8.46025 -10.70447,-3.03264 -5.89707,-16.71406 -18.03015,-24.88735 -29.44525,-19.83325 -3.33439,1.47628 -9.12958,3.18015 -12.87577,3.78278 -14.59181,2.34724 -21.42033,20.73305 -11.85826,31.92353 4.40143,5.15113 4.39865,5.1523 11.63397,0.10476 19.95273,-13.91903 34.65681,6.69999 36.96066,51.82131 1.22416,23.97761 0,26.21735 -9.7028,17.63938 -11.18832,-9.88872 -25.01134,-8.44318 -27.84286,2.91166 -2.40752,9.65809 1.45356,15.10467 13.15625,18.55083 10.84771,3.19455 16.22751,31.60497 9.5908,50.65984 -5.61852,16.13078 -18.48387,11.98728 -16.68164,-5.37165 0.94796,-9.12917 0.57557,-11.88357 -2.00322,-14.75195 -10.08988,-11.22314 -27.70212,-2.47469 -22.57064,11.21113 3.08206,8.21957 -0.25442,10.2498 -18.82877,11.46117 -33.81199,2.20516 -51.95983,18.20321 -51.95983,45.80445 0,38.81523 55.35958,57.32106 86.76516,29.00374 9.05921,-8.16778 17.35006,-7.25017 13.39665,1.48413 -2.74533,6.06473 1.87594,10.53365 10.88866,10.53365 16.20862,0 20.53037,-21.71656 5.74482,-28.86671 -12.44676,-6.01904 -12.60124,-6.64857 -4.23044,-17.30874 8.60661,-10.96034 10.64966,-11.38104 24.78205,-5.08936 22.22464,9.89412 31.32258,23.39336 21.16051,31.39928 -7.15191,5.63431 -6.30832,12.69925 2.03513,17.04258 11.17721,5.81836 19.60351,0.27374 21.505,-14.1551 1.54436,-11.71891 3.70801,-12.59062 18.01974,-7.25905 41.14848,15.32918 66.01881,22.53892 98.99192,28.6973 7.38759,1.37983 40.46756,-0.28368 54.49184,-2.74224 18.83655,-3.30201 31.09094,-16.36879 21.19244,-22.59168 -5.89236,-3.7043 -4.43225,-6.04145 7.77995,-12.48553 21.12372,-11.14637 34.64876,-26.19997 34.66931,-38.57762 0.0139,-5.86485 -1.0529,-7.48236 -8.1726,-12.43712 -3.51495,-2.4461 -3.50343,-2.70891 0.65704,-16.81668 5.36023,-18.17594 4.94829,-38.87955 -0.9295,-46.80452 -11.49989,-15.5053 -29.9399,-22.17693 -36.93664,-13.36463 -1.93993,2.44328 -8.36996,6.812 -14.29396,9.71094 -23.50598,11.50292 -23.91446,42.62544 -0.44068,33.60117 19.68847,-7.56913 27.97473,24.32971 13.05995,50.28075 -19.88832,34.60523 -70.43328,48.69748 -126.45811,35.24652 -26.7607,-6.4249 -28.82275,-8.35602 -16.50536,-15.4375 10.73584,-6.17218 15.05525,-13.94299 14.07758,-25.32587 -1.97212,-22.96095 -34.4929,-30.95312 -34.4929,-8.47689 0,15.70981 -31.5423,25.51376 -57.56849,17.89748 -19.74869,-5.77926 -20.22045,-7.06431 -10.32779,-28.51986 9.56928,-20.75444 12.61525,-29.52969 22.73887,-65.5731 7.99286,-28.4572 11.03841,-33.44316 18.39629,-30.06844 6.91471,3.17157 9.06976,2.77465 14.51019,-2.70195 10.3396,-10.40827 4.95426,-23.23015 -10.40786,-24.78551 -10.84021,-1.09752 -16.40154,-16.87941 -9.62285,-27.29386 1.51105,-2.32141 2.74826,-7.199 2.74826,-10.84818 0,-3.64914 1.27274,-8.59542 2.82833,-10.98532 1.5556,-2.38995 3.31399,-8.83736 3.90997,-14.33251 1.35518,-12.49632 4.30011,-17.31458 13.46063,-22.019 13.42706,-6.89544 7.82271,-26.64049 -6.04127,-21.28504 -9.72292,3.75589 -5.67306,-21.36306 7.36343,-45.66729 16.02583,-29.87728 47.64333,-48.90962 57.10368,-34.37541 3.78378,5.81332 4.65778,5.78461 11.85811,-0.31468 6.99105,-5.92165 6.60048,-13.12147 -1.1538,-21.26891 -14.52297,-15.25959 32.11759,-33.91062 60.533,-24.20475 7.68042,2.62341 19.96674,15.2101 19.96674,20.45427 0,5.30951 7.12929,13.25172 11.89019,13.25172 8.83561,0 14.41582,-6.98801 13.19638,-16.52634 -2.28595,-17.88104 -2.28941,-17.89571 1.68259,-17.24417 5.92109,0.9713 10.09865,6.37527 12.54724,16.22793 2.26498,9.11415 2.33424,9.17909 9.174,8.63823 8.56621,-0.67746 9.69794,5.60323 2.27552,12.62262 -2.53826,2.40048 -4.61504,5.99112 -4.61504,7.98489 0,3.12311 -0.8243,3.44225 -5.99325,2.29868 -10.85534,-2.40157 -11.41579,-2.19345 -13.16418,4.80707 -8.4406,33.79509 37.79551,27.55482 47.03224,-6.34759 14.39254,-52.82623 -18.42336,-83.2636 -70.39609,-83.51089 z M 187.84055,520.94783 c 2.51632,-0.0987 6.20658,0.32005 11.90629,1.04045 24.24048,3.06394 25.42883,5.14747 11.06491,19.38963 -9.2338,9.15557 -9.23644,9.15693 -14.77459,5.86368 -6.83115,-4.06208 -9.22217,-2.76628 -9.22217,4.98452 0,7.25534 -3.94881,13.31336 -11.09711,17.03449 -21.60437,11.24634 -42.13809,-22.16655 -23.29169,-37.90014 2.66193,-2.22237 4.07485,-2.1465 10.04743,0.56459 8.44088,3.83172 16.11896,1.69784 18.72468,-5.20227 1.5159,-4.01365 2.44804,-5.61067 6.64225,-5.77495 z"
     id="path4287"
     inkscape:connector-curvature="0" />
</svg>
